<?xml version="1.0" encoding="UTF-8" standalone="no"?>
<svg
   xmlns="http://www.w3.org/2000/svg"
   width="30"
   height="30"
   viewBox="0 0 512 512"
   version="1.1">
  <g
     transform="translate(-14.639175,-0.4583138)">
    <g
       transform="translate(21.333333,1.254902)">
      <path
         d="m 445.81747,512.68627 c -2.365,0 -4.755,-0.703 -6.838,-2.166 l -115.761,-81.371 H 52.898471 c -6.577,0 -11.907,-5.331 -11.907,-11.907 V 12.593275 c -10e-4,-6.5760005 5.33,-11.90700049 11.907,-11.90700049 6.576,0 11.907,5.33099999 11.907,11.90700049 V 405.33627 H 326.98447 c 2.451,0 4.843,0.756 6.848,2.166 l 118.843,83.534 c 5.38,3.783 6.676,11.21 2.895,16.59 -2.32,3.296 -6.007,5.06 -9.753,5.06 z"
         style="fill:#abb6c2;fill-opacity:1" />
    </g>
    <g
       transform="translate(-36.398492,19.137255)">
      <path
         d="M 481.278,365.09484 H 159.791 c -6.577,0 -11.907,-3.44864 -11.907,-10.02364 V 263.069 c 0,-6.576 5.33,-11.907 11.907,-11.907 h 321.487 c 6.576,0 11.907,5.331 11.907,11.907 v 90.605 c 10e-4,6.575 -5.331,11.42084 -11.907,11.42084 z M 171.698,343.674 469.371,343.79165 V 274.977 H 171.698 Z"
         style="fill:#4e5d6c;fill-opacity:1" />
    </g>
    <g
       transform="translate(-37.677492,17.677843)">
      <path
         d="M 433.65,322.604 H 207.419 c -6.577,0 -11.907,-5.331 -11.907,-11.907 0,-6.576 5.33,-11.907 11.907,-11.907 H 433.65 c 6.576,0 11.907,5.331 11.907,11.907 0,6.576 -5.33,11.907 -11.907,11.907 z"
         style="fill:#4e5d6c;fill-opacity:1" />
    </g>
    <g
       transform="translate(-36.725492,6.7362158)">
      <path
         d="M 481.278,227.487 H 159.791 c -6.577,0 -11.907,-5.331 -11.907,-11.906 V 25.069 c 0,-6.576 5.33,-11.907 11.907,-11.907 h 321.487 c 6.576,0 11.907,5.331 11.907,11.907 v 190.512 c 10e-4,6.575 -5.331,11.906 -11.907,11.906 z M 171.698,203.674 H 469.371 V 36.977 H 171.698 Z"
         style="fill:#465464;fill-opacity:1" />
    </g>
    <g
       transform="translate(-37.677492,2.509804)">
      <path
         d="M 433.65,84.604 H 207.419 c -6.577,0 -11.907,-5.331 -11.907,-11.907 0,-6.576 5.33,-11.907 11.907,-11.907 H 433.65 c 6.576,0 11.907,5.331 11.907,11.907 0,6.576 -5.33,11.907 -11.907,11.907 z"
         style="fill:#465464;fill-opacity:1" />
    </g>
    <g
       transform="translate(7.4989783,5.4812158)">
      <path
         d="m 388.47353,132.232 h -226.231 c -6.577,0 -11.907,-5.331 -11.907,-11.907 0,-6.576 5.33,-11.907 11.907,-11.907 h 226.231 c 6.576,0 11.907,5.331 11.907,11.907 0,6.576 -5.33,11.907 -11.907,11.907 z"
         style="fill:#465464;fill-opacity:1" />
    </g>
    <g
       transform="translate(5.9499583,7.8542158)">
      <path
         d="M 273.02255,179.859 H 163.49743 c -6.577,0 -11.907,-5.331 -11.907,-11.906 0,-6.576 5.33,-11.907 11.907,-11.907 h 108.58394 c 6.576,0 11.94996,5.331 11.94996,11.907 10e-4,6.575 -4.43178,11.906 -11.00878,11.906 z"
         style="fill:#465464;fill-opacity:1" />
    </g>
  </g>
</svg>
